<svg xmlns="http://www.w3.org/2000/svg" xmlns:xlink="http://www.w3.org/1999/xlink" viewBox="0 0 1366.04 766.2"><defs><style>.cls-1{fill:url(#Gradiente_sem_nome_92);}.cls-2{opacity:0.72;fill:url(#Gradiente_sem_nome_92-2);}.cls-3{opacity:0.53;fill:url(#Gradiente_sem_nome_92-3);}</style><linearGradient id="Gradiente_sem_nome_92" x1="35.06" y1="714.47" x2="1151.07" y2="94.63" gradientUnits="userSpaceOnUse"><stop offset="0" stop-color="#ff2534"/><stop offset="0.24" stop-color="#fb2a2f"/><stop offset="0.54" stop-color="#f03921"/><stop offset="0.87" stop-color="#dd520b"/><stop offset="1" stop-color="#d45e00"/></linearGradient><linearGradient id="Gradiente_sem_nome_92-2" x1="1221.96" y1="429.87" x2="1444.94" y2="306.03" xlink:href="#Gradiente_sem_nome_92"/><linearGradient id="Gradiente_sem_nome_92-3" x1="-79.09" y1="496.94" x2="145.91" y2="371.97" xlink:href="#Gradiente_sem_nome_92"/></defs><g id="Camada_2" data-name="Camada 2"><g id="Camada_1-2" data-name="Camada 1"><path class="cls-1" d="M83.66,690.57a197.81,197.81,0,0,1,80.27,17,201.35,201.35,0,0,1,36,20.7c7.24,5.22,15.62,19.06,25.08,18.53,9.93-.56,19.66-16.24,27.37-21.51a197.7,197.7,0,0,1,203.2-12.45,245.93,245.93,0,0,1,40.63,26.55c5.18,4.16,24.56,28.39,30.32,26.68,11.55-3.43,24.53-19.87,33.58-27.56,11.73-10,23.77-19.65,37.54-26.72,26.45-13.58,55.63-21.27,85.43-21.26a198,198,0,0,1,88.14,20.76c20.16,10,36.32,25.41,52.78,40.44,10.27,9.37,12.71,15.22,25,6.81,8.59-5.89,15-14.79,23.19-21.24A256.3,256.3,0,0,1,909,712.78a182.83,182.83,0,0,1,86.92-22.21,196.5,196.5,0,0,1,87.79,20.87,205.15,205.15,0,0,1,37.46,24.25c7,5.72,22.44,28.12,30.06,29.95,8,1.94,26.14-19,33.86-24.74a233.19,233.19,0,0,1,36.08-22.15,189.51,189.51,0,0,1,83.21-19.41A197,197,0,0,1,1366,709.2V241.75S1310.5,114.5,1045.5,114.5,683,0,683,0H0V709.16A196.94,196.94,0,0,1,83.66,690.57Z"/><path class="cls-2" d="M1366,116A92.49,92.49,0,0,0,1286,162.24l-85.46,148a92.48,92.48,0,0,0,0,92.48l85.46,148A92.49,92.49,0,0,0,1366,597"/><path class="cls-3" d="M0,233c97.75,0,177,93.57,177,209S97.75,651,0,651"/></g></g></svg>